<svg width="128" height="128" viewBox="0 0 128 128" fill="none" xmlns="http://www.w3.org/2000/svg">
  <rect x="8" y="8" width="112" height="112" rx="16" fill="#4ECDC4" stroke="#36A7A0" stroke-width="4"/>
  <rect x="16" y="16" width="96" height="32" fill="#ffffff" fill-opacity="0.9"/>
  <rect x="16" y="56" width="32" height="56" fill="#ffffff" fill-opacity="0.9"/>
  
  <!-- Horizontal ruler -->
  <line x1="24" y1="32" x2="104" y2="32" stroke="#4ECDC4" stroke-width="4"/>
  
  <!-- Vertical ruler -->
  <line x1="32" y1="64" x2="32" y2="104" stroke="#4ECDC4" stroke-width="4"/>
  
  <!-- Horizontal scale marks -->
  <circle cx="24" cy="24" r="3" fill="#4ECDC4"/>
  <circle cx="36" cy="24" r="3" fill="#4ECDC4"/>
  <circle cx="48" cy="24" r="3" fill="#4ECDC4"/>
  <circle cx="60" cy="24" r="3" fill="#4ECDC4"/>
  <circle cx="72" cy="24" r="3" fill="#4ECDC4"/>
  <circle cx="84" cy="24" r="3" fill="#4ECDC4"/>
  <circle cx="96" cy="24" r="3" fill="#4ECDC4"/>
  <circle cx="108" cy="24" r="3" fill="#4ECDC4"/>
  
  <!-- Vertical scale marks -->
  <circle cx="24" cy="72" r="3" fill="#4ECDC4"/>
  <circle cx="24" cy="84" r="3" fill="#4ECDC4"/>
  <circle cx="24" cy="96" r="3" fill="#4ECDC4"/>
  <circle cx="24" cy="108" r="3" fill="#4ECDC4"/>
  
  <!-- Measurement icon -->
  <rect x="64" y="64" width="48" height="48" rx="8" fill="#FFE66D" stroke="#D4B942" stroke-width="2"/>
  <text x="88" y="84" text-anchor="middle" font-family="Arial, sans-serif" font-size="12" font-weight="bold" fill="#B8860B">320</text>
  <text x="88" y="96" text-anchor="middle" font-family="Arial, sans-serif" font-size="12" font-weight="bold" fill="#B8860B">×</text>
  <text x="88" y="108" text-anchor="middle" font-family="Arial, sans-serif" font-size="12" font-weight="bold" fill="#B8860B">240</text>
  
  <!-- Corner accent -->
  <circle cx="20" cy="20" r="4" fill="#FF6B6B"/>
</svg>